<svg xmlns="http://www.w3.org/2000/svg" viewBox="0 0 636 300"><title>swimlane-speed-gauge-comparison</title><circle cx="103.27" cy="158.367" r="88.744" transform="translate(-81.735 119.407) rotate(-45)" fill="#737373"/><path d="M167.585,219.514A88.743,88.743,0,0,0,42.123,94.052Z" fill="#939393"/><circle cx="103.27" cy="158.367" r="77.209" transform="translate(-81.735 119.407) rotate(-45)" fill="#fff"/><path d="M58.932,157.689a44.343,44.343,0,0,1,88.676,0H172a68.729,68.729,0,0,0-137.451,0Z" fill="#e6e6e6"/><path d="M103.019,89.63a68.81,68.81,0,0,0-68.475,68.059H58.932a44.4,44.4,0,0,1,44.176-43.673Z" fill="#f08400"/><path d="M90.136,95.518l-2.342.556L97.867,149.08a10.053,10.053,0,1,0,7.7-1.923Z"/><circle cx="317.389" cy="128.903" r="114.903" fill="#737373"/><path d="M399.027,209.752A114.9,114.9,0,0,0,236.54,47.265Z" fill="#939393"/><circle cx="317.389" cy="128.903" r="99.967" fill="#fff"/><path d="M259.982,128.026a57.413,57.413,0,0,1,114.814,0h31.577a88.988,88.988,0,0,0-177.967,0Z" fill="#e6e6e6"/><path d="M368.593,102.962,396.747,88.7a88.963,88.963,0,0,0-168.341,39.327h31.576a57.4,57.4,0,0,1,108.611-25.064Z" fill="#5c2d91"/><path d="M317.064,39.905a89.092,89.092,0,0,0-88.658,88.121h31.576a57.482,57.482,0,0,1,57.2-56.547Z" fill="none"/><path d="M248.16,73.1a88.513,88.513,0,0,0-19.754,54.922h31.576A57.124,57.124,0,0,1,272.721,92.9Z" fill="none"/><path d="M374.5,69.81l-2.255-2.153-50.491,48.278a13.017,13.017,0,1,0,7.516,7.016Z"/><circle cx="532.73" cy="158.367" r="88.744" transform="translate(44.051 423.082) rotate(-45)" fill="#737373"/><path d="M596.43,220.147A88.738,88.738,0,0,0,470.95,94.667Z" fill="#939393"/><circle cx="532.73" cy="158.367" r="77.209" transform="translate(44.051 423.082) rotate(-45)" fill="#fff"/><path d="M488.392,157.689a44.343,44.343,0,0,1,88.676,0h24.388a68.729,68.729,0,0,0-137.451,0Z" fill="#e6e6e6"/><path d="M479.262,115.271a68.357,68.357,0,0,0-15.257,42.418h24.387a44.113,44.113,0,0,1,9.839-27.128Z" fill="#91a80a"/><path d="M474.207,134.558l-.838,2.257,49.672,21.068a10.052,10.052,0,1,0,2.68-7.475Z"/><path d="M66.707,268.5a5.005,5.005,0,0,1-.844,3.1,2.949,2.949,0,0,1-3.336.918v-1.3a1.827,1.827,0,0,0,1.094.305q1.774,0,1.774-3.008v-7.2h1.312Z"/><path d="M75.105,272.512H73.824v-1.25h-.031a2.684,2.684,0,0,1-2.461,1.437,2.628,2.628,0,0,1-1.871-.633,2.191,2.191,0,0,1-.676-1.679q0-2.243,2.641-2.61l2.4-.336q0-2.038-1.648-2.039a3.938,3.938,0,0,0-2.61.985v-1.313a4.96,4.96,0,0,1,2.719-.75q2.82,0,2.82,2.985Zm-1.281-4.047-1.929.265a3.14,3.14,0,0,0-1.344.442,1.274,1.274,0,0,0-.453,1.121,1.219,1.219,0,0,0,.418.957,1.61,1.61,0,0,0,1.113.371,2.056,2.056,0,0,0,1.574-.668,2.386,2.386,0,0,0,.621-1.691Z"/><path d="M83.809,264.512l-3.188,8H79.363l-3.031-8h1.406l2.032,5.812a5.2,5.2,0,0,1,.281,1.117h.031a5.349,5.349,0,0,1,.25-1.086l2.125-5.843Z"/><path d="M90.91,272.512H89.629v-1.25H89.6a2.684,2.684,0,0,1-2.461,1.437,2.628,2.628,0,0,1-1.871-.633,2.188,2.188,0,0,1-.676-1.679q0-2.243,2.64-2.61l2.4-.336q0-2.038-1.649-2.039a3.935,3.935,0,0,0-2.609.985v-1.313a4.955,4.955,0,0,1,2.719-.75q2.82,0,2.82,2.985Zm-1.281-4.047-1.93.265a3.14,3.14,0,0,0-1.344.442,1.276,1.276,0,0,0-.453,1.121,1.222,1.222,0,0,0,.418.957,1.614,1.614,0,0,0,1.114.371,2.058,2.058,0,0,0,1.574-.668,2.386,2.386,0,0,0,.621-1.691Z"/><path d="M97.355,272.059v-1.547a3.024,3.024,0,0,0,.637.422,5.163,5.163,0,0,0,.781.316,6.224,6.224,0,0,0,.825.2,4.583,4.583,0,0,0,.765.071,3,3,0,0,0,1.809-.45,1.683,1.683,0,0,0,.4-2.082,2.248,2.248,0,0,0-.55-.613,5.482,5.482,0,0,0-.832-.531q-.481-.253-1.036-.535-.585-.3-1.093-.6a4.712,4.712,0,0,1-.883-.672,2.787,2.787,0,0,1-.59-.832,2.836,2.836,0,0,1,.121-2.422,2.9,2.9,0,0,1,.883-.933,4,4,0,0,1,1.246-.547,5.693,5.693,0,0,1,1.426-.18,5.457,5.457,0,0,1,2.414.4V263a4.379,4.379,0,0,0-2.547-.687,4.247,4.247,0,0,0-.859.089,2.438,2.438,0,0,0-.766.293,1.7,1.7,0,0,0-.547.524,1.387,1.387,0,0,0-.211.781,1.615,1.615,0,0,0,.16.742,1.824,1.824,0,0,0,.473.571,4.768,4.768,0,0,0,.762.5q.448.242,1.035.531t1.14.625a5.241,5.241,0,0,1,.946.726,3.252,3.252,0,0,1,.644.883,2.482,2.482,0,0,1,.239,1.11,2.814,2.814,0,0,1-.325,1.4,2.655,2.655,0,0,1-.875.934,3.814,3.814,0,0,1-1.269.519,6.949,6.949,0,0,1-1.516.16,6.091,6.091,0,0,1-.656-.043c-.261-.029-.526-.07-.8-.125a6.345,6.345,0,0,1-.769-.2A2.364,2.364,0,0,1,97.355,272.059Z"/><path d="M112.637,268.832h-5.649a3,3,0,0,0,.719,2.063,2.479,2.479,0,0,0,1.891.726,3.928,3.928,0,0,0,2.484-.891v1.2a4.646,4.646,0,0,1-2.789.765,3.379,3.379,0,0,1-2.664-1.09,4.457,4.457,0,0,1-.969-3.066,4.373,4.373,0,0,1,1.059-3.043,3.394,3.394,0,0,1,2.629-1.176,3.007,3.007,0,0,1,2.429,1.016,4.228,4.228,0,0,1,.86,2.82Zm-1.313-1.086a2.6,2.6,0,0,0-.535-1.726,1.822,1.822,0,0,0-1.465-.618,2.072,2.072,0,0,0-1.539.649,2.94,2.94,0,0,0-.781,1.695Z"/><path d="M118.746,265.809a1.567,1.567,0,0,0-.969-.258,1.635,1.635,0,0,0-1.371.773,3.579,3.579,0,0,0-.551,2.11v4.078h-1.281v-8h1.281v1.648h.032a2.792,2.792,0,0,1,.836-1.316,1.906,1.906,0,0,1,1.257-.473,2.116,2.116,0,0,1,.766.109Z"/><path d="M126.426,264.512l-3.188,8H121.98l-3.031-8h1.406l2.032,5.812a5.2,5.2,0,0,1,.281,1.117h.031a5.349,5.349,0,0,1,.25-1.086l2.125-5.843Z"/><path d="M129.082,272.512H127.8V260.668h1.281Z"/><path d="M138.1,268.832h-5.648a3,3,0,0,0,.719,2.063,2.479,2.479,0,0,0,1.89.726,3.929,3.929,0,0,0,2.485-.891v1.2a4.646,4.646,0,0,1-2.789.765,3.379,3.379,0,0,1-2.664-1.09,4.457,4.457,0,0,1-.969-3.066,4.369,4.369,0,0,1,1.059-3.043,3.394,3.394,0,0,1,2.628-1.176,3.009,3.009,0,0,1,2.43,1.016,4.233,4.233,0,0,1,.859,2.82Zm-1.312-1.086a2.607,2.607,0,0,0-.535-1.726,1.823,1.823,0,0,0-1.465-.618,2.07,2.07,0,0,0-1.539.649,2.934,2.934,0,0,0-.781,1.695Z"/><path d="M143.754,272.434a2.476,2.476,0,0,1-1.195.25q-2.1,0-2.1-2.344v-4.735h-1.375v-1.093h1.375v-1.953l1.281-.414v2.367h2.016v1.093h-2.016v4.508a1.864,1.864,0,0,0,.274,1.149,1.09,1.09,0,0,0,.906.343,1.346,1.346,0,0,0,.836-.265Z"/><path d="M84.705,190.4H75.916v-1.084a4.1,4.1,0,0,1,.186-1.245,5.053,5.053,0,0,1,.5-1.093,6.194,6.194,0,0,1,.732-.967q.42-.454.9-.879t.977-.82q.5-.4.977-.8.449-.381.82-.747a5.03,5.03,0,0,0,.635-.757,3.471,3.471,0,0,0,.41-.825,2.954,2.954,0,0,0,.146-.943,2.514,2.514,0,0,0-.171-.971,1.881,1.881,0,0,0-.478-.694,2.037,2.037,0,0,0-.728-.42,2.864,2.864,0,0,0-.918-.141,4.237,4.237,0,0,0-1.748.4,6,6,0,0,0-1.709,1.2v-2.178a7.352,7.352,0,0,1,.87-.561,5.771,5.771,0,0,1,.908-.4,5.615,5.615,0,0,1,.986-.24,7.423,7.423,0,0,1,1.1-.078,5.569,5.569,0,0,1,1.718.249,3.649,3.649,0,0,1,1.319.733,3.2,3.2,0,0,1,.844,1.206,4.3,4.3,0,0,1,.3,1.66,5.132,5.132,0,0,1-.21,1.528,4.917,4.917,0,0,1-.595,1.265,6.538,6.538,0,0,1-.933,1.113q-.546.528-1.221,1.084-.566.459-1.128.894t-1.01.849a4.786,4.786,0,0,0-.728.83,1.485,1.485,0,0,0-.278.835v.049h6.318Z"/><path d="M88.475,190.613a1.4,1.4,0,0,1-1-.385,1.224,1.224,0,0,1-.411-.923,1.248,1.248,0,0,1,.411-.938,1.391,1.391,0,0,1,1-.39,1.419,1.419,0,0,1,1.01.39,1.237,1.237,0,0,1,.415.938,1.214,1.214,0,0,1-.415.923A1.428,1.428,0,0,1,88.475,190.613Z"/><path d="M92.4,190.076V187.9a4.953,4.953,0,0,0,2.793.928,3.46,3.46,0,0,0,2.3-.727,2.4,2.4,0,0,0,.869-1.939,2.188,2.188,0,0,0-.883-1.855,4.158,4.158,0,0,0-2.535-.664q-.564,0-2.294.117l.5-7.363h6.894v1.933h-5.01l-.234,3.506q.673-.039,1.221-.039a4.832,4.832,0,0,1,3.442,1.143,4.078,4.078,0,0,1,1.216,3.125A4.27,4.27,0,0,1,99.28,189.4a5.5,5.5,0,0,1-3.823,1.255A6.332,6.332,0,0,1,92.4,190.076Z"/><path d="M103.5,190.076V187.9a4.953,4.953,0,0,0,2.793.928,3.461,3.461,0,0,0,2.3-.727,2.4,2.4,0,0,0,.869-1.939,2.186,2.186,0,0,0-.884-1.855,4.155,4.155,0,0,0-2.534-.664q-.566,0-2.3.117l.5-7.363h6.9v1.933h-5.01l-.235,3.506q.675-.039,1.221-.039a4.835,4.835,0,0,1,3.443,1.143,4.081,4.081,0,0,1,1.215,3.125,4.269,4.269,0,0,1-1.391,3.334,5.5,5.5,0,0,1-3.823,1.255A6.329,6.329,0,0,1,103.5,190.076Z"/><path d="M129.861,190.4h-2.3v-9.062q0-1.113.136-2.725h-.039a9.079,9.079,0,0,1-.381,1.319L123.094,190.4h-1.6l-4.189-10.39a9.936,9.936,0,0,1-.371-1.4h-.039q.078.84.078,2.744V190.4h-2.149v-14h3.272l3.681,9.326a13.5,13.5,0,0,1,.547,1.6h.049q.361-1.1.586-1.64l3.75-9.287h3.154Z"/><path d="M70.876,199.855a1.18,1.18,0,0,0-.726-.193,1.225,1.225,0,0,0-1.028.58,2.678,2.678,0,0,0-.414,1.582v3.059h-.96v-6h.96v1.236h.024a2.1,2.1,0,0,1,.627-.987,1.432,1.432,0,0,1,.943-.355,1.579,1.579,0,0,1,.574.082Z"/><path d="M76.742,202.123H72.505a2.249,2.249,0,0,0,.539,1.547,1.861,1.861,0,0,0,1.418.545,2.953,2.953,0,0,0,1.864-.668v.9a3.483,3.483,0,0,1-2.092.574,2.534,2.534,0,0,1-2-.817,3.342,3.342,0,0,1-.727-2.3,3.283,3.283,0,0,1,.794-2.282,2.547,2.547,0,0,1,1.972-.882,2.255,2.255,0,0,1,1.822.762,3.175,3.175,0,0,1,.645,2.115Zm-.985-.814a1.952,1.952,0,0,0-.4-1.295,1.367,1.367,0,0,0-1.1-.463,1.552,1.552,0,0,0-1.154.486,2.207,2.207,0,0,0-.586,1.272Z"/><path d="M83.316,207.643h-.961v-3.791h-.023a2.15,2.15,0,0,1-2.051,1.171,2.259,2.259,0,0,1-1.814-.805,3.288,3.288,0,0,1-.682-2.195,3.59,3.59,0,0,1,.75-2.387,2.5,2.5,0,0,1,2.015-.894,1.893,1.893,0,0,1,1.782.973h.023v-.832h.961Zm-.961-5.461v-.873a1.744,1.744,0,0,0-.483-1.248,1.62,1.62,0,0,0-1.228-.51,1.652,1.652,0,0,0-1.371.641,2.866,2.866,0,0,0-.5,1.808,2.483,2.483,0,0,0,.486,1.626,1.553,1.553,0,0,0,1.254.589,1.693,1.693,0,0,0,1.345-.577A2.142,2.142,0,0,0,82.355,202.182Z"/><path d="M90.113,204.883h-.961v-.949h-.024a1.972,1.972,0,0,1-1.851,1.089q-2.145,0-2.145-2.554v-3.586h.955v3.433q0,1.9,1.454,1.9A1.47,1.47,0,0,0,88.7,203.7a1.986,1.986,0,0,0,.454-1.356v-3.457h.961Z"/><path d="M96.875,202.123H92.638a2.245,2.245,0,0,0,.539,1.547,1.861,1.861,0,0,0,1.418.545,2.948,2.948,0,0,0,1.863-.668v.9a3.478,3.478,0,0,1-2.091.574,2.534,2.534,0,0,1-2-.817,3.342,3.342,0,0,1-.727-2.3,3.283,3.283,0,0,1,.794-2.282,2.546,2.546,0,0,1,1.972-.882,2.255,2.255,0,0,1,1.822.762,3.175,3.175,0,0,1,.645,2.115Zm-.985-.814a1.958,1.958,0,0,0-.4-1.295,1.367,1.367,0,0,0-1.1-.463,1.552,1.552,0,0,0-1.154.486,2.2,2.2,0,0,0-.586,1.272Z"/><path d="M97.964,204.666v-1.031a2.851,2.851,0,0,0,1.729.58q1.266,0,1.265-.844a.733.733,0,0,0-.108-.407,1.083,1.083,0,0,0-.293-.3,2.225,2.225,0,0,0-.433-.231q-.249-.1-.537-.214a6.93,6.93,0,0,1-.7-.32,2.105,2.105,0,0,1-.5-.363,1.357,1.357,0,0,1-.3-.46,1.613,1.613,0,0,1-.1-.6,1.444,1.444,0,0,1,.193-.748,1.715,1.715,0,0,1,.516-.544,2.391,2.391,0,0,1,.735-.331,3.236,3.236,0,0,1,.853-.112,3.436,3.436,0,0,1,1.394.27v.972a2.716,2.716,0,0,0-1.523-.433,1.775,1.775,0,0,0-.486.061,1.185,1.185,0,0,0-.372.173.794.794,0,0,0-.241.267.709.709,0,0,0-.085.343.827.827,0,0,0,.085.392.866.866,0,0,0,.249.281,1.914,1.914,0,0,0,.4.223c.156.066.334.139.533.217a7.36,7.36,0,0,1,.715.313,2.453,2.453,0,0,1,.539.364,1.422,1.422,0,0,1,.343.465,1.505,1.505,0,0,1,.12.627,1.489,1.489,0,0,1-.2.774,1.685,1.685,0,0,1-.525.545,2.411,2.411,0,0,1-.756.322,3.746,3.746,0,0,1-.9.1A3.41,3.41,0,0,1,97.964,204.666Z"/><path d="M106.2,204.824a1.856,1.856,0,0,1-.9.188q-1.576,0-1.576-1.758V199.7H102.7v-.82h1.031v-1.465l.961-.311v1.776H106.2v.82h-1.512v3.381a1.4,1.4,0,0,0,.2.861.818.818,0,0,0,.68.258,1.01,1.01,0,0,0,.627-.2Z"/><path d="M107.123,204.666v-1.031a2.846,2.846,0,0,0,1.728.58q1.266,0,1.266-.844a.725.725,0,0,0-.109-.407,1.083,1.083,0,0,0-.293-.3,2.225,2.225,0,0,0-.433-.231q-.249-.1-.536-.214a6.954,6.954,0,0,1-.7-.32,2.079,2.079,0,0,1-.5-.363,1.345,1.345,0,0,1-.305-.46,1.613,1.613,0,0,1-.1-.6,1.435,1.435,0,0,1,.194-.748,1.712,1.712,0,0,1,.515-.544,2.386,2.386,0,0,1,.736-.331,3.223,3.223,0,0,1,.852-.112,3.437,3.437,0,0,1,1.395.27v.972a2.722,2.722,0,0,0-1.524-.433,1.78,1.78,0,0,0-.486.061,1.185,1.185,0,0,0-.372.173.781.781,0,0,0-.24.267.7.7,0,0,0-.085.343.815.815,0,0,0,.085.392.844.844,0,0,0,.249.281,1.88,1.88,0,0,0,.4.223c.156.066.334.139.533.217a7.36,7.36,0,0,1,.715.313,2.453,2.453,0,0,1,.539.364,1.408,1.408,0,0,1,.343.465,1.505,1.505,0,0,1,.12.627,1.479,1.479,0,0,1-.2.774,1.685,1.685,0,0,1-.525.545,2.4,2.4,0,0,1-.755.322,3.754,3.754,0,0,1-.9.1A3.406,3.406,0,0,1,107.123,204.666Z"/><path d="M119.656,196.48l-4.031,9.8h-.9l4.02-9.8Z"/><path d="M123.464,204.666v-1.031a2.851,2.851,0,0,0,1.729.58q1.266,0,1.265-.844a.733.733,0,0,0-.108-.407,1.083,1.083,0,0,0-.293-.3,2.225,2.225,0,0,0-.433-.231q-.249-.1-.537-.214a6.93,6.93,0,0,1-.7-.32,2.105,2.105,0,0,1-.5-.363,1.357,1.357,0,0,1-.3-.46,1.613,1.613,0,0,1-.1-.6,1.444,1.444,0,0,1,.193-.748,1.715,1.715,0,0,1,.516-.544,2.391,2.391,0,0,1,.735-.331,3.236,3.236,0,0,1,.853-.112,3.436,3.436,0,0,1,1.394.27v.972a2.716,2.716,0,0,0-1.523-.433,1.775,1.775,0,0,0-.486.061,1.185,1.185,0,0,0-.372.173.794.794,0,0,0-.241.267.709.709,0,0,0-.085.343.827.827,0,0,0,.085.392.866.866,0,0,0,.249.281,1.914,1.914,0,0,0,.4.223c.156.066.334.139.533.217a7.36,7.36,0,0,1,.715.313,2.453,2.453,0,0,1,.539.364,1.422,1.422,0,0,1,.343.465,1.505,1.505,0,0,1,.12.627,1.489,1.489,0,0,1-.2.774,1.685,1.685,0,0,1-.525.545,2.411,2.411,0,0,1-.756.322,3.746,3.746,0,0,1-.9.1A3.41,3.41,0,0,1,123.464,204.666Z"/><path d="M133.742,202.123h-4.237a2.249,2.249,0,0,0,.539,1.547,1.861,1.861,0,0,0,1.418.545,2.953,2.953,0,0,0,1.864-.668v.9a3.483,3.483,0,0,1-2.092.574,2.534,2.534,0,0,1-2-.817,3.342,3.342,0,0,1-.727-2.3,3.283,3.283,0,0,1,.794-2.282,2.547,2.547,0,0,1,1.972-.882,2.255,2.255,0,0,1,1.822.762,3.175,3.175,0,0,1,.645,2.115Zm-.985-.814a1.952,1.952,0,0,0-.4-1.295,1.367,1.367,0,0,0-1.1-.463,1.552,1.552,0,0,0-1.154.486,2.207,2.207,0,0,0-.586,1.272Z"/><path d="M139.285,204.607a3.117,3.117,0,0,1-1.641.416,2.714,2.714,0,0,1-2.071-.835,3.022,3.022,0,0,1-.788-2.165,3.325,3.325,0,0,1,.849-2.381,2.973,2.973,0,0,1,2.268-.9,3.158,3.158,0,0,1,1.394.293v.985a2.437,2.437,0,0,0-1.429-.469,1.932,1.932,0,0,0-1.509.659,2.5,2.5,0,0,0-.589,1.731,2.38,2.38,0,0,0,.554,1.664,1.906,1.906,0,0,0,1.485.61,2.407,2.407,0,0,0,1.477-.522Z"/><path d="M516.6,272.512h-1.61l-5.765-8.93a3.733,3.733,0,0,1-.36-.7h-.047a11.451,11.451,0,0,1,.063,1.539v8.094h-1.313v-11.2h1.7l5.609,8.789q.351.546.453.75h.031a11.873,11.873,0,0,1-.078-1.649v-7.89H516.6Z"/><path d="M522.707,272.7a3.708,3.708,0,0,1-2.832-1.121,4.151,4.151,0,0,1-1.059-2.973,4.328,4.328,0,0,1,1.1-3.148,3.962,3.962,0,0,1,2.977-1.133,3.588,3.588,0,0,1,2.793,1.1,4.373,4.373,0,0,1,1,3.054,4.3,4.3,0,0,1-1.082,3.067A3.792,3.792,0,0,1,522.707,272.7Zm.094-7.3a2.439,2.439,0,0,0-1.953.84,3.446,3.446,0,0,0-.719,2.317,3.263,3.263,0,0,0,.726,2.242,2.47,2.47,0,0,0,1.946.82,2.34,2.34,0,0,0,1.91-.805,3.492,3.492,0,0,0,.668-2.289,3.553,3.553,0,0,0-.668-2.312A2.331,2.331,0,0,0,522.8,265.4Z"/><path d="M535.566,272.512h-1.281v-1.36h-.031a2.957,2.957,0,0,1-2.75,1.547,2.988,2.988,0,0,1-2.41-1.074,4.4,4.4,0,0,1-.9-2.926,4.789,4.789,0,0,1,1-3.179,3.3,3.3,0,0,1,2.664-1.2,2.566,2.566,0,0,1,2.4,1.3h.031v-4.953h1.281Zm-1.281-3.617v-1.18a2.293,2.293,0,0,0-.64-1.641,2.15,2.15,0,0,0-1.625-.672,2.212,2.212,0,0,0-1.844.86,3.764,3.764,0,0,0-.672,2.375,3.387,3.387,0,0,0,.644,2.183,2.108,2.108,0,0,0,1.731.8,2.19,2.19,0,0,0,1.738-.773A2.879,2.879,0,0,0,534.285,268.9Z"/><path d="M544.59,268.832h-5.649a3,3,0,0,0,.719,2.063,2.479,2.479,0,0,0,1.891.726,3.928,3.928,0,0,0,2.484-.891v1.2a4.646,4.646,0,0,1-2.789.765,3.38,3.38,0,0,1-2.664-1.09,4.457,4.457,0,0,1-.969-3.066,4.373,4.373,0,0,1,1.059-3.043,3.393,3.393,0,0,1,2.629-1.176,3.007,3.007,0,0,1,2.429,1.016,4.233,4.233,0,0,1,.86,2.82Zm-1.313-1.086a2.6,2.6,0,0,0-.535-1.726,1.822,1.822,0,0,0-1.465-.618,2.072,2.072,0,0,0-1.539.649,2.94,2.94,0,0,0-.781,1.695Z"/><path d="M546.973,272.684a.829.829,0,0,1-.614-.258.85.85,0,0,1-.254-.617.861.861,0,0,1,.254-.621.822.822,0,0,1,.614-.262.879.879,0,1,1,0,1.758Z"/><path d="M551.277,272.176a5.012,5.012,0,0,1-.793,3.035,2.656,2.656,0,0,1-2.269,1.066,2.409,2.409,0,0,1-1.063-.25v-1.195a2.126,2.126,0,0,0,1.094.352q1.75,0,1.75-2.8v-7.875h1.281Zm-.625-9.7a.814.814,0,0,1-.586-.234.792.792,0,0,1-.242-.594.821.821,0,0,1,.828-.836.827.827,0,0,1,.6.239.834.834,0,0,1,0,1.183A.818.818,0,0,1,550.652,262.48Z"/><path d="M553.387,272.223v-1.375a3.792,3.792,0,0,0,2.3.773q1.688,0,1.688-1.125a.974.974,0,0,0-.145-.543,1.43,1.43,0,0,0-.39-.394,2.984,2.984,0,0,0-.578-.309q-.333-.137-.715-.285a9.024,9.024,0,0,1-.934-.426,2.844,2.844,0,0,1-.672-.484,1.807,1.807,0,0,1-.406-.614,2.169,2.169,0,0,1-.137-.8,1.91,1.91,0,0,1,.258-1,2.282,2.282,0,0,1,.688-.727,3.208,3.208,0,0,1,.98-.441,4.347,4.347,0,0,1,1.137-.149,4.584,4.584,0,0,1,1.859.36v1.3a3.626,3.626,0,0,0-2.031-.578,2.392,2.392,0,0,0-.648.082,1.6,1.6,0,0,0-.5.231,1.067,1.067,0,0,0-.32.355.933.933,0,0,0-.113.457,1.092,1.092,0,0,0,.113.524,1.157,1.157,0,0,0,.332.375,2.587,2.587,0,0,0,.531.3c.208.089.446.185.711.289a9.836,9.836,0,0,1,.953.418,3.236,3.236,0,0,1,.719.484,1.9,1.9,0,0,1,.457.621,2,2,0,0,1,.16.836,1.972,1.972,0,0,1-.261,1.031,2.238,2.238,0,0,1-.7.727,3.2,3.2,0,0,1-1.007.43,5.023,5.023,0,0,1-1.2.14A4.544,4.544,0,0,1,553.387,272.223Z"/><path d="M509.82,190.633a3.91,3.91,0,0,1-3.413-1.787,9.111,9.111,0,0,1-1.226-5.166,10.109,10.109,0,0,1,1.279-5.616,4.178,4.178,0,0,1,3.692-1.9q4.618,0,4.619,7.178a9.45,9.45,0,0,1-1.3,5.425A4.2,4.2,0,0,1,509.82,190.633Zm.224-12.666q-2.548,0-2.548,5.615,0,5.253,2.5,5.254,2.46,0,2.461-5.342Q512.457,177.967,510.044,177.967Z"/><path d="M517.935,190.613a1.4,1.4,0,0,1-1-.385,1.226,1.226,0,0,1-.41-.923,1.25,1.25,0,0,1,.41-.938,1.391,1.391,0,0,1,1-.39,1.423,1.423,0,0,1,1.011.39,1.241,1.241,0,0,1,.415.938,1.217,1.217,0,0,1-.415.923A1.432,1.432,0,0,1,517.935,190.613Z"/><path d="M521.236,186.492a4.517,4.517,0,0,1,.151-1.172,3.79,3.79,0,0,1,.454-1.045,3.676,3.676,0,0,1,.762-.859,3.758,3.758,0,0,1,1.074-.615,4.156,4.156,0,0,1-1.445-1.3,3.084,3.084,0,0,1-.537-1.763,3.228,3.228,0,0,1,.317-1.425,3.47,3.47,0,0,1,.879-1.133,4.152,4.152,0,0,1,1.323-.747,5.257,5.257,0,0,1,3.335,0,4.179,4.179,0,0,1,1.328.752,3.375,3.375,0,0,1,.874,1.132,3.236,3.236,0,0,1,.313,1.416,3.084,3.084,0,0,1-.537,1.763,4.209,4.209,0,0,1-1.426,1.3,3.945,3.945,0,0,1,1.069.61,3.738,3.738,0,0,1,.777.855,3.683,3.683,0,0,1,.469,1.045,4.423,4.423,0,0,1,.156,1.181,4.056,4.056,0,0,1-.342,1.68,3.785,3.785,0,0,1-.957,1.3,4.417,4.417,0,0,1-1.475.844,5.658,5.658,0,0,1-1.894.3,5.591,5.591,0,0,1-1.88-.3,4.487,4.487,0,0,1-1.475-.844,3.8,3.8,0,0,1-.966-1.3A4.011,4.011,0,0,1,521.236,186.492Zm2.207-.195a3.079,3.079,0,0,0,.176,1.074,2.272,2.272,0,0,0,.5.811,2.143,2.143,0,0,0,.776.507,2.765,2.765,0,0,0,1.011.176,2.625,2.625,0,0,0,.986-.18,2.245,2.245,0,0,0,.777-.518,2.4,2.4,0,0,0,.512-.811,3.05,3.05,0,0,0,.01-2.07,2.474,2.474,0,0,0-.5-.825,2.372,2.372,0,0,0-.776-.557,2.442,2.442,0,0,0-1.011-.2,2.514,2.514,0,0,0-.982.191,2.271,2.271,0,0,0-.781.537,2.514,2.514,0,0,0-.513.825A2.88,2.88,0,0,0,523.443,186.3Zm.478-6.328a2.124,2.124,0,0,0,.577,1.469,1.886,1.886,0,0,0,1.386.591,1.831,1.831,0,0,0,.767-.161,2.008,2.008,0,0,0,.625-.439,2.1,2.1,0,0,0,.581-1.46,2.2,2.2,0,0,0-.151-.821,2.024,2.024,0,0,0-.415-.654,1.927,1.927,0,0,0-.625-.43,2.056,2.056,0,0,0-1.583,0,1.871,1.871,0,0,0-.62.445,2.022,2.022,0,0,0-.4.659A2.246,2.246,0,0,0,523.921,179.969Z"/><path d="M532.652,189.881v-2.129a4.835,4.835,0,0,0,3.086,1.084,3.588,3.588,0,0,0,2.231-.635,2.044,2.044,0,0,0,.835-1.719q0-2.382-3.642-2.382h-1.084v-1.817h1.035q3.232,0,3.232-2.246,0-2.07-2.519-2.07a4.13,4.13,0,0,0-2.647,1.006v-2.012a6.771,6.771,0,0,1,3.369-.8,4.514,4.514,0,0,1,2.989.938,2.99,2.99,0,0,1,1.123,2.4,3.424,3.424,0,0,1-2.813,3.555v.039a3.681,3.681,0,0,1,2.393,1.059,3.159,3.159,0,0,1,.879,2.281,3.742,3.742,0,0,1-1.416,3.042,5.715,5.715,0,0,1-3.731,1.157A6.367,6.367,0,0,1,532.652,189.881Z"/><path d="M559.322,190.4h-2.3v-9.062q0-1.113.137-2.725h-.039a9.346,9.346,0,0,1-.381,1.319l-4.18,10.468h-1.6l-4.19-10.39a9.8,9.8,0,0,1-.371-1.4h-.039q.078.84.078,2.744V190.4h-2.148v-14h3.271l3.682,9.326a13.887,13.887,0,0,1,.547,1.6h.049q.36-1.1.585-1.64l3.75-9.287h3.155Z"/><path d="M500.337,199.855a1.181,1.181,0,0,0-.727-.193,1.225,1.225,0,0,0-1.028.58,2.685,2.685,0,0,0-.413,1.582v3.059h-.961v-6h.961v1.236h.023a2.1,2.1,0,0,1,.627-.987,1.434,1.434,0,0,1,.944-.355,1.583,1.583,0,0,1,.574.082Z"/><path d="M506.2,202.123h-4.236a2.24,2.24,0,0,0,.539,1.547,1.859,1.859,0,0,0,1.418.545,2.948,2.948,0,0,0,1.863-.668v.9a3.479,3.479,0,0,1-2.092.574,2.537,2.537,0,0,1-2-.817,3.347,3.347,0,0,1-.726-2.3,3.278,3.278,0,0,1,.794-2.282,2.544,2.544,0,0,1,1.971-.882,2.256,2.256,0,0,1,1.823.762,3.18,3.18,0,0,1,.644,2.115Zm-.984-.814a1.953,1.953,0,0,0-.4-1.295,1.364,1.364,0,0,0-1.1-.463,1.555,1.555,0,0,0-1.155.486,2.206,2.206,0,0,0-.585,1.272Z"/><path d="M512.776,207.643h-.961v-3.791h-.023a2.15,2.15,0,0,1-2.051,1.171,2.257,2.257,0,0,1-1.813-.805,3.288,3.288,0,0,1-.683-2.195,3.59,3.59,0,0,1,.75-2.387,2.5,2.5,0,0,1,2.016-.894,1.891,1.891,0,0,1,1.781.973h.023v-.832h.961Zm-.961-5.461v-.873a1.744,1.744,0,0,0-.483-1.248,1.617,1.617,0,0,0-1.228-.51,1.652,1.652,0,0,0-1.371.641,2.866,2.866,0,0,0-.5,1.808,2.484,2.484,0,0,0,.487,1.626,1.55,1.55,0,0,0,1.254.589,1.692,1.692,0,0,0,1.344-.577A2.142,2.142,0,0,0,511.815,202.182Z"/><path d="M519.573,204.883h-.961v-.949h-.023a1.975,1.975,0,0,1-1.852,1.089q-2.144,0-2.144-2.554v-3.586h.955v3.433q0,1.9,1.453,1.9a1.469,1.469,0,0,0,1.157-.519,1.981,1.981,0,0,0,.454-1.356v-3.457h.961Z"/><path d="M526.335,202.123H522.1a2.24,2.24,0,0,0,.539,1.547,1.858,1.858,0,0,0,1.418.545,2.95,2.95,0,0,0,1.863-.668v.9a3.481,3.481,0,0,1-2.092.574,2.534,2.534,0,0,1-2-.817,3.347,3.347,0,0,1-.726-2.3,3.282,3.282,0,0,1,.793-2.282,2.547,2.547,0,0,1,1.972-.882,2.254,2.254,0,0,1,1.822.762,3.175,3.175,0,0,1,.645,2.115Zm-.984-.814a1.953,1.953,0,0,0-.4-1.295,1.365,1.365,0,0,0-1.1-.463,1.554,1.554,0,0,0-1.155.486,2.214,2.214,0,0,0-.586,1.272Z"/><path d="M527.425,204.666v-1.031a2.846,2.846,0,0,0,1.728.58q1.266,0,1.266-.844a.733.733,0,0,0-.108-.407,1.1,1.1,0,0,0-.293-.3,2.235,2.235,0,0,0-.434-.231q-.249-.1-.536-.214a6.83,6.83,0,0,1-.7-.32,2.085,2.085,0,0,1-.5-.363,1.345,1.345,0,0,1-.305-.46,1.634,1.634,0,0,1-.1-.6,1.435,1.435,0,0,1,.193-.748,1.715,1.715,0,0,1,.516-.544,2.37,2.37,0,0,1,.735-.331,3.223,3.223,0,0,1,.852-.112,3.437,3.437,0,0,1,1.4.27v.972a2.717,2.717,0,0,0-1.524-.433,1.786,1.786,0,0,0-.486.061,1.206,1.206,0,0,0-.372.173.8.8,0,0,0-.24.267.7.7,0,0,0-.085.343.815.815,0,0,0,.085.392.866.866,0,0,0,.249.281,1.88,1.88,0,0,0,.4.223c.157.066.334.139.534.217a7.445,7.445,0,0,1,.714.313,2.453,2.453,0,0,1,.539.364,1.408,1.408,0,0,1,.343.465,1.505,1.505,0,0,1,.12.627,1.479,1.479,0,0,1-.2.774,1.693,1.693,0,0,1-.524.545,2.411,2.411,0,0,1-.756.322,3.748,3.748,0,0,1-.9.1A3.406,3.406,0,0,1,527.425,204.666Z"/><path d="M535.663,204.824a1.849,1.849,0,0,1-.9.188q-1.577,0-1.577-1.758V199.7h-1.031v-.82h1.031v-1.465l.961-.311v1.776h1.512v.82h-1.512v3.381a1.406,1.406,0,0,0,.205.861.82.82,0,0,0,.68.258,1.01,1.01,0,0,0,.627-.2Z"/><path d="M536.583,204.666v-1.031a2.849,2.849,0,0,0,1.729.58q1.264,0,1.265-.844a.733.733,0,0,0-.108-.407,1.1,1.1,0,0,0-.293-.3,2.235,2.235,0,0,0-.434-.231q-.249-.1-.536-.214a6.83,6.83,0,0,1-.7-.32,2.105,2.105,0,0,1-.5-.363,1.36,1.36,0,0,1-.3-.46,1.634,1.634,0,0,1-.1-.6,1.435,1.435,0,0,1,.193-.748,1.715,1.715,0,0,1,.516-.544,2.391,2.391,0,0,1,.735-.331,3.231,3.231,0,0,1,.853-.112,3.436,3.436,0,0,1,1.394.27v.972a2.716,2.716,0,0,0-1.523-.433,1.788,1.788,0,0,0-.487.061,1.206,1.206,0,0,0-.372.173.8.8,0,0,0-.24.267.7.7,0,0,0-.085.343.815.815,0,0,0,.085.392.866.866,0,0,0,.249.281,1.864,1.864,0,0,0,.4.223c.156.066.334.139.533.217a7.469,7.469,0,0,1,.715.313,2.477,2.477,0,0,1,.539.364,1.419,1.419,0,0,1,.342.465,1.5,1.5,0,0,1,.121.627,1.48,1.48,0,0,1-.2.774,1.682,1.682,0,0,1-.524.545,2.411,2.411,0,0,1-.756.322,3.748,3.748,0,0,1-.9.1A3.406,3.406,0,0,1,536.583,204.666Z"/><path d="M549.116,196.48l-4.031,9.8h-.9l4.02-9.8Z"/><path d="M552.925,204.666v-1.031a2.846,2.846,0,0,0,1.728.58q1.266,0,1.266-.844a.733.733,0,0,0-.108-.407,1.1,1.1,0,0,0-.293-.3,2.235,2.235,0,0,0-.434-.231q-.249-.1-.536-.214a6.83,6.83,0,0,1-.7-.32,2.085,2.085,0,0,1-.5-.363,1.345,1.345,0,0,1-.305-.46,1.634,1.634,0,0,1-.1-.6,1.435,1.435,0,0,1,.193-.748,1.715,1.715,0,0,1,.516-.544,2.37,2.37,0,0,1,.735-.331,3.223,3.223,0,0,1,.852-.112,3.437,3.437,0,0,1,1.4.27v.972a2.717,2.717,0,0,0-1.524-.433,1.786,1.786,0,0,0-.486.061,1.206,1.206,0,0,0-.372.173.8.8,0,0,0-.24.267.7.7,0,0,0-.085.343.815.815,0,0,0,.085.392.866.866,0,0,0,.249.281,1.88,1.88,0,0,0,.4.223c.157.066.334.139.534.217a7.445,7.445,0,0,1,.714.313,2.453,2.453,0,0,1,.539.364,1.408,1.408,0,0,1,.343.465,1.505,1.505,0,0,1,.12.627,1.479,1.479,0,0,1-.2.774,1.693,1.693,0,0,1-.524.545,2.411,2.411,0,0,1-.756.322,3.748,3.748,0,0,1-.9.1A3.406,3.406,0,0,1,552.925,204.666Z"/><path d="M563.2,202.123h-4.236a2.24,2.24,0,0,0,.539,1.547,1.859,1.859,0,0,0,1.418.545,2.948,2.948,0,0,0,1.863-.668v.9a3.479,3.479,0,0,1-2.092.574,2.537,2.537,0,0,1-2-.817,3.347,3.347,0,0,1-.726-2.3,3.278,3.278,0,0,1,.794-2.282,2.544,2.544,0,0,1,1.971-.882,2.256,2.256,0,0,1,1.823.762,3.18,3.18,0,0,1,.644,2.115Zm-.984-.814a1.953,1.953,0,0,0-.4-1.295,1.364,1.364,0,0,0-1.1-.463,1.555,1.555,0,0,0-1.155.486,2.206,2.206,0,0,0-.585,1.272Z"/><path d="M568.745,204.607a3.117,3.117,0,0,1-1.641.416,2.716,2.716,0,0,1-2.071-.835,3.026,3.026,0,0,1-.788-2.165,3.321,3.321,0,0,1,.85-2.381,2.97,2.97,0,0,1,2.267-.9,3.163,3.163,0,0,1,1.395.293v.985a2.44,2.44,0,0,0-1.43-.469,1.935,1.935,0,0,0-1.509.659,2.5,2.5,0,0,0-.589,1.731,2.38,2.38,0,0,0,.554,1.664,1.906,1.906,0,0,0,1.486.61,2.406,2.406,0,0,0,1.476-.522Z"/><path d="M303.174,272.684a.829.829,0,0,1-.613-.258.85.85,0,0,1-.254-.617.861.861,0,0,1,.254-.621.821.821,0,0,1,.613-.262.843.843,0,0,1,.625.262.853.853,0,0,1,.258.621.881.881,0,0,1-.883.875Z"/><path d="M315.4,272.512h-1.609l-5.766-8.93a3.67,3.67,0,0,1-.359-.7h-.047a11.7,11.7,0,0,1,.062,1.539v8.094H306.37v-11.2h1.7l5.609,8.789c.235.364.385.614.453.75h.032a11.672,11.672,0,0,1-.079-1.649v-7.89H315.4Z"/><path d="M324.276,272.512h-5.938v-11.2h5.688V262.5h-4.375v3.727H323.7V267.4h-4.047v3.922h4.625Z"/><path d="M333.057,262.5h-3.234v10.016H328.51V262.5h-3.226v-1.187h7.773Z"/><path d="M292.5,167.1a7.219,7.219,0,0,1-.486,2.693,6.3,6.3,0,0,1-1.347,2.1,6,6,0,0,1-2.043,1.367,6.7,6.7,0,0,1-2.564.485,6.367,6.367,0,0,1-2.714-.574,5.812,5.812,0,0,1-2.133-1.709,8.206,8.206,0,0,1-1.387-2.823,14.046,14.046,0,0,1-.493-3.917,16.376,16.376,0,0,1,.65-4.826,10.6,10.6,0,0,1,1.784-3.528,7.637,7.637,0,0,1,2.666-2.16,7.522,7.522,0,0,1,3.309-.738,12.433,12.433,0,0,1,2.016.15,5.656,5.656,0,0,1,1.456.41v2.858a9.407,9.407,0,0,0-1.49-.6,6.142,6.142,0,0,0-1.818-.246,4.839,4.839,0,0,0-2.119.465,4.7,4.7,0,0,0-1.675,1.36A6.735,6.735,0,0,0,283,160.075a10.711,10.711,0,0,0-.417,3.042h.082a4.428,4.428,0,0,1,1.7-1.531,5.37,5.37,0,0,1,2.522-.561,6.158,6.158,0,0,1,2.317.417,4.884,4.884,0,0,1,1.764,1.2,5.412,5.412,0,0,1,1.128,1.914A7.621,7.621,0,0,1,292.5,167.1Zm-3.2.259a5.641,5.641,0,0,0-.2-1.544,3.324,3.324,0,0,0-.6-1.2,2.711,2.711,0,0,0-1.011-.772,3.466,3.466,0,0,0-1.429-.274,3.351,3.351,0,0,0-1.442.294,3.168,3.168,0,0,0-1.682,1.867,3.814,3.814,0,0,0-.212,1.257,5.453,5.453,0,0,0,.2,1.429,4.361,4.361,0,0,0,.609,1.333,3.4,3.4,0,0,0,1.046.991,2.829,2.829,0,0,0,1.51.39,3.174,3.174,0,0,0,1.381-.287,2.829,2.829,0,0,0,1-.793,3.574,3.574,0,0,0,.615-1.2A5.088,5.088,0,0,0,289.3,167.355Z"/><path d="M296.943,173.7a1.962,1.962,0,0,1-1.395-.54,1.714,1.714,0,0,1-.574-1.292,1.75,1.75,0,0,1,.574-1.312,1.947,1.947,0,0,1,1.395-.547,1.988,1.988,0,0,1,1.415.547,1.739,1.739,0,0,1,.581,1.312,1.7,1.7,0,0,1-.581,1.292A2,2,0,0,1,296.943,173.7Z"/><path d="M314.634,162.529a17.764,17.764,0,0,1-.635,5.059,10.017,10.017,0,0,1-1.75,3.486,6.891,6.891,0,0,1-2.612,2.017,8.017,8.017,0,0,1-3.22.649,9.506,9.506,0,0,1-1.127-.068q-.569-.069-1.081-.178c-.341-.073-.651-.152-.929-.239a6.248,6.248,0,0,1-.691-.253v-2.857a5.8,5.8,0,0,0,.711.362,7.583,7.583,0,0,0,.923.328,9,9,0,0,0,1.039.232,6.36,6.36,0,0,0,1.046.089,4.856,4.856,0,0,0,2.112-.451,4.347,4.347,0,0,0,1.621-1.34,6.494,6.494,0,0,0,1.032-2.208,11.606,11.606,0,0,0,.362-3.055h-.055a3.615,3.615,0,0,1-.649.827,4.536,4.536,0,0,1-.923.683,5.091,5.091,0,0,1-1.155.472,5.019,5.019,0,0,1-1.361.178,6.026,6.026,0,0,1-2.29-.431,5.385,5.385,0,0,1-1.838-1.224,5.626,5.626,0,0,1-1.224-1.927,6.894,6.894,0,0,1-.444-2.53,7.26,7.26,0,0,1,.5-2.768,6.059,6.059,0,0,1,3.487-3.445,7.078,7.078,0,0,1,2.611-.472,6.385,6.385,0,0,1,2.509.5,5.405,5.405,0,0,1,2.078,1.586,8.085,8.085,0,0,1,1.422,2.809A14.438,14.438,0,0,1,314.634,162.529Zm-3.308-2.091a6,6,0,0,0-.253-1.792,4.3,4.3,0,0,0-.7-1.38,3.184,3.184,0,0,0-1.074-.889,2.967,2.967,0,0,0-1.36-.314,3.023,3.023,0,0,0-1.251.266,3.1,3.1,0,0,0-1.039.759,3.664,3.664,0,0,0-.7,1.189,4.4,4.4,0,0,0-.26,1.545,4.877,4.877,0,0,0,.253,1.641,3.4,3.4,0,0,0,.7,1.2,2.941,2.941,0,0,0,1.087.738,3.751,3.751,0,0,0,1.4.253,3.131,3.131,0,0,0,1.265-.253,3.243,3.243,0,0,0,1.012-.683,3.137,3.137,0,0,0,.677-1.019A3.22,3.22,0,0,0,311.326,160.438Z"/><path d="M330,155.379q-1.23,2.256-2.324,4.464t-1.982,4.436q-.89,2.229-1.545,4.492a35.5,35.5,0,0,0-1.012,4.627h-3.322a33.968,33.968,0,0,1,.936-4.2q.609-2.1,1.429-4.2t1.839-4.218q1.019-2.118,2.167-4.279H316.9v-2.707H330Z"/><path d="M354.433,173.4h-3.226V160.711q0-1.559.191-3.815h-.055a13.068,13.068,0,0,1-.533,1.846L344.958,173.4h-2.242l-5.865-14.546a13.728,13.728,0,0,1-.519-1.956h-.055q.11,1.178.109,3.842V173.4h-3.008v-19.6h4.58l5.155,13.057a19.4,19.4,0,0,1,.765,2.242h.069q.505-1.545.82-2.3l5.25-13h4.416Z"/><path d="M285,184.855a1.183,1.183,0,0,0-.727-.193,1.225,1.225,0,0,0-1.028.58,2.678,2.678,0,0,0-.413,1.582v3.059h-.961v-6h.961v1.236h.023a2.1,2.1,0,0,1,.627-.987,1.432,1.432,0,0,1,.943-.355,1.589,1.589,0,0,1,.575.082Z"/><path d="M290.861,187.123h-4.236a2.24,2.24,0,0,0,.539,1.547,1.858,1.858,0,0,0,1.418.545,2.952,2.952,0,0,0,1.863-.668v.9a3.483,3.483,0,0,1-2.092.574,2.534,2.534,0,0,1-2-.817,3.347,3.347,0,0,1-.727-2.3,3.283,3.283,0,0,1,.794-2.282,2.547,2.547,0,0,1,1.972-.882,2.254,2.254,0,0,1,1.822.762,3.175,3.175,0,0,1,.645,2.115Zm-.985-.814a1.947,1.947,0,0,0-.4-1.295,1.367,1.367,0,0,0-1.1-.463,1.553,1.553,0,0,0-1.154.486,2.207,2.207,0,0,0-.586,1.272Z"/><path d="M297.435,192.643h-.961v-3.791h-.023a2.15,2.15,0,0,1-2.051,1.171,2.26,2.26,0,0,1-1.814-.805,3.288,3.288,0,0,1-.682-2.195,3.59,3.59,0,0,1,.75-2.387,2.5,2.5,0,0,1,2.015-.894,1.893,1.893,0,0,1,1.782.973h.023v-.832h.961Zm-.961-5.461v-.873a1.744,1.744,0,0,0-.483-1.248,1.62,1.62,0,0,0-1.228-.51,1.652,1.652,0,0,0-1.371.641,2.866,2.866,0,0,0-.5,1.808,2.478,2.478,0,0,0,.487,1.626,1.55,1.55,0,0,0,1.253.589,1.693,1.693,0,0,0,1.345-.577A2.142,2.142,0,0,0,296.474,187.182Z"/><path d="M304.232,189.883h-.961v-.949h-.023a1.975,1.975,0,0,1-1.852,1.089q-2.145,0-2.145-2.554v-3.586h.956v3.433q0,1.9,1.453,1.9a1.47,1.47,0,0,0,1.157-.519,1.981,1.981,0,0,0,.454-1.356v-3.457h.961Z"/><path d="M310.994,187.123h-4.237a2.249,2.249,0,0,0,.539,1.547,1.861,1.861,0,0,0,1.418.545,2.953,2.953,0,0,0,1.864-.668v.9a3.483,3.483,0,0,1-2.092.574,2.534,2.534,0,0,1-2-.817,3.342,3.342,0,0,1-.727-2.3,3.283,3.283,0,0,1,.794-2.282,2.546,2.546,0,0,1,1.972-.882,2.255,2.255,0,0,1,1.822.762,3.175,3.175,0,0,1,.645,2.115Zm-.985-.814a1.952,1.952,0,0,0-.4-1.295,1.367,1.367,0,0,0-1.1-.463,1.552,1.552,0,0,0-1.154.486,2.207,2.207,0,0,0-.586,1.272Z"/><path d="M312.083,189.666v-1.031a2.851,2.851,0,0,0,1.729.58q1.266,0,1.266-.844a.725.725,0,0,0-.109-.407,1.083,1.083,0,0,0-.293-.3,2.225,2.225,0,0,0-.433-.231q-.249-.1-.536-.214a6.954,6.954,0,0,1-.7-.32,2.105,2.105,0,0,1-.5-.363,1.357,1.357,0,0,1-.3-.46,1.613,1.613,0,0,1-.1-.6,1.435,1.435,0,0,1,.194-.748,1.7,1.7,0,0,1,.515-.544,2.386,2.386,0,0,1,.736-.331,3.223,3.223,0,0,1,.852-.112,3.441,3.441,0,0,1,1.395.27v.972a2.722,2.722,0,0,0-1.524-.433,1.775,1.775,0,0,0-.486.061,1.185,1.185,0,0,0-.372.173.781.781,0,0,0-.24.267.7.7,0,0,0-.085.343.815.815,0,0,0,.085.392.844.844,0,0,0,.249.281,1.88,1.88,0,0,0,.4.223c.156.066.334.139.533.217a7.36,7.36,0,0,1,.715.313,2.453,2.453,0,0,1,.539.364,1.408,1.408,0,0,1,.343.465,1.505,1.505,0,0,1,.12.627,1.479,1.479,0,0,1-.2.774,1.685,1.685,0,0,1-.525.545,2.392,2.392,0,0,1-.756.322,3.746,3.746,0,0,1-.9.1A3.413,3.413,0,0,1,312.083,189.666Z"/><path d="M320.322,189.824a1.856,1.856,0,0,1-.9.188q-1.575,0-1.576-1.758V184.7h-1.031v-.82h1.031v-1.465l.961-.311v1.776h1.512v.82H318.81v3.381a1.4,1.4,0,0,0,.2.861.818.818,0,0,0,.68.258,1.01,1.01,0,0,0,.627-.2Z"/><path d="M321.242,189.666v-1.031a2.846,2.846,0,0,0,1.728.58q1.266,0,1.266-.844a.725.725,0,0,0-.109-.407,1.069,1.069,0,0,0-.293-.3,2.225,2.225,0,0,0-.433-.231q-.249-.1-.536-.214a6.83,6.83,0,0,1-.7-.32,2.066,2.066,0,0,1-.5-.363,1.345,1.345,0,0,1-.305-.46,1.634,1.634,0,0,1-.1-.6,1.435,1.435,0,0,1,.194-.748,1.723,1.723,0,0,1,.515-.544,2.386,2.386,0,0,1,.736-.331,3.223,3.223,0,0,1,.852-.112,3.437,3.437,0,0,1,1.395.27v.972a2.719,2.719,0,0,0-1.524-.433,1.786,1.786,0,0,0-.486.061,1.206,1.206,0,0,0-.372.173.781.781,0,0,0-.24.267.7.7,0,0,0-.085.343.815.815,0,0,0,.085.392.844.844,0,0,0,.249.281,1.88,1.88,0,0,0,.4.223c.156.066.334.139.533.217a7.36,7.36,0,0,1,.715.313,2.453,2.453,0,0,1,.539.364,1.408,1.408,0,0,1,.343.465,1.505,1.505,0,0,1,.12.627,1.479,1.479,0,0,1-.2.774,1.693,1.693,0,0,1-.524.545,2.411,2.411,0,0,1-.756.322,3.754,3.754,0,0,1-.9.1A3.406,3.406,0,0,1,321.242,189.666Z"/><path d="M333.775,181.48l-4.031,9.8h-.9l4.02-9.8Z"/><path d="M337.583,189.666v-1.031a2.851,2.851,0,0,0,1.729.58q1.266,0,1.266-.844a.725.725,0,0,0-.109-.407,1.083,1.083,0,0,0-.293-.3,2.225,2.225,0,0,0-.433-.231q-.249-.1-.536-.214a6.954,6.954,0,0,1-.7-.32,2.105,2.105,0,0,1-.5-.363,1.357,1.357,0,0,1-.3-.46,1.613,1.613,0,0,1-.1-.6,1.435,1.435,0,0,1,.194-.748,1.7,1.7,0,0,1,.515-.544,2.386,2.386,0,0,1,.736-.331,3.223,3.223,0,0,1,.852-.112,3.441,3.441,0,0,1,1.395.27v.972a2.722,2.722,0,0,0-1.524-.433,1.775,1.775,0,0,0-.486.061,1.185,1.185,0,0,0-.372.173.781.781,0,0,0-.24.267.7.7,0,0,0-.085.343.815.815,0,0,0,.085.392.844.844,0,0,0,.249.281,1.88,1.88,0,0,0,.4.223c.156.066.334.139.533.217a7.36,7.36,0,0,1,.715.313,2.453,2.453,0,0,1,.539.364,1.408,1.408,0,0,1,.343.465,1.505,1.505,0,0,1,.12.627,1.479,1.479,0,0,1-.2.774,1.685,1.685,0,0,1-.525.545,2.392,2.392,0,0,1-.756.322,3.746,3.746,0,0,1-.9.1A3.413,3.413,0,0,1,337.583,189.666Z"/><path d="M347.861,187.123h-4.236a2.24,2.24,0,0,0,.539,1.547,1.858,1.858,0,0,0,1.418.545,2.952,2.952,0,0,0,1.863-.668v.9a3.483,3.483,0,0,1-2.092.574,2.534,2.534,0,0,1-2-.817,3.347,3.347,0,0,1-.727-2.3,3.283,3.283,0,0,1,.794-2.282,2.547,2.547,0,0,1,1.972-.882,2.254,2.254,0,0,1,1.822.762,3.175,3.175,0,0,1,.645,2.115Zm-.985-.814a1.947,1.947,0,0,0-.4-1.295,1.367,1.367,0,0,0-1.1-.463,1.553,1.553,0,0,0-1.154.486,2.207,2.207,0,0,0-.586,1.272Z"/><path d="M353.4,189.607a3.117,3.117,0,0,1-1.641.416,2.714,2.714,0,0,1-2.071-.835,3.026,3.026,0,0,1-.788-2.165,3.325,3.325,0,0,1,.849-2.381,2.973,2.973,0,0,1,2.268-.9,3.166,3.166,0,0,1,1.395.293v.985a2.442,2.442,0,0,0-1.43-.469,1.935,1.935,0,0,0-1.509.659,2.5,2.5,0,0,0-.589,1.731,2.38,2.38,0,0,0,.554,1.664,1.906,1.906,0,0,0,1.485.61,2.407,2.407,0,0,0,1.477-.522Z"/></svg>